<?xml version="1.0" standalone="no"?>
<!DOCTYPE svg PUBLIC "-//W3C//DTD SVG 1.1//EN" "http://www.w3.org/Graphics/SVG/1.1/DTD/svg11.dtd" >
<svg xmlns="http://www.w3.org/2000/svg">
<metadata>
This is a custom SVG webfont generated by Font Squirrel.
Copyright   : Copyright c 2010 by Pablo Impallari wwwimpallaricom Copyright c 2010 by Igino Marini wwwikerncom All rights reserved
Designer    : Pablo Impallari
Foundry     : Pablo Impallari wwwimpallaricom Igino Marini wwwikerncom
Foundry URL : wwwimpallaricom
</metadata>
<defs>
<font id="webfontZWIqaQ9u" horiz-adv-x="1150" >
<font-face units-per-em="2048" ascent="1536" descent="-512" />
<missing-glyph horiz-adv-x="460" />
<glyph unicode=" "  horiz-adv-x="460" />
<glyph unicode="&#x09;" horiz-adv-x="460" />
<glyph unicode="&#xa0;" horiz-adv-x="460" />
<glyph unicode="!" horiz-adv-x="516" d="M131 410v1126h213v-1126h-213zM385 254v-254h-254v254h254z" />
<glyph unicode="&#x22;" horiz-adv-x="811" d="M115 922l-41 614h254l-41 -614h-172zM524 922l-41 614h254l-41 -614h-172z" />
<glyph unicode="#" horiz-adv-x="1441" d="M541 1040l151 394h172l-151 -394h262l151 394h172l-151 -394h231l-61 -180h-238l-88 -227h260l-86 -193h-247l-177 -463h-172l176 463h-262l-176 -463h-172l176 463h-245l86 193h233l88 227h-256l62 180h262zM557 633h262l88 227h-262z" />
<glyph unicode="$" horiz-adv-x="989" d="M672 481q0 55 -44 90t-109.5 60.5t-141.5 49.5t-141.5 59.5t-109.5 90t-44 140.5q0 51 17.5 104t57.5 98.5t105.5 78t161.5 42.5l-31 238h197l-25 -238q88 -6 171 -29.5t122 -47.5l-20 -216q-78 41 -164 72t-156 31q-37 0 -74.5 -4t-68.5 -16.5t-49.5 -34t-18.5 -54.5 q0 -53 45 -82.5t112.5 -52t147.5 -46t147.5 -63.5t113 -102.5t45.5 -165.5q0 -43 -13.5 -94t-51.5 -97t-108.5 -81t-183.5 -45l29 -232h-197l29 230q-111 6 -195 28.5t-129 51.5l29 243q49 -49 139 -87t213 -38q92 0 142.5 25.5t50.5 93.5z" />
<glyph unicode="%" horiz-adv-x="1724" d="M516 -23h-213l862 1457h213zM1350 737q68 0 124 -25.5t97 -73.5t63.5 -116.5t22.5 -152.5q0 -88 -22.5 -160t-64.5 -122t-100.5 -77.5t-130.5 -27.5q-141 0 -224 99t-83 271q0 88 24.5 160t67.5 122t100.5 76.5t125.5 26.5zM1341 133q66 0 110 53.5t44 182.5 q0 117 -45 169t-102 52t-104.5 -56.5t-47.5 -181.5q0 -119 42 -169t103 -50zM387 1442q68 0 124 -25.5t97 -74t63.5 -117t22.5 -152.5q0 -88 -22.5 -159.5t-64.5 -122t-100 -78t-130 -27.5q-141 0 -224 99.5t-83 271.5q0 88 24.5 159.5t67.5 122t100 77t125 26.5zM379 838 q66 0 109.5 53t43.5 182q0 117 -45 169t-102 52t-104.5 -56t-47.5 -181q0 -119 42.5 -169t103.5 -50z" />
<glyph unicode="&#x26;" horiz-adv-x="1284" d="M983 0l-63 70q-68 -53 -160 -86t-217 -33t-215 32.5t-148.5 87t-86 125t-27.5 148.5q0 70 20 129t54 108.5t80 91.5t95 79q-61 78 -107 165t-46 185q0 80 34.5 142.5t92 106.5t133.5 66.5t156 22.5q160 0 242.5 -81t82.5 -212q0 -68 -24.5 -122t-65.5 -100t-93 -86 l-108 -79l287 -328q14 72 16.5 147.5l4.5 141.5h243q0 -43 -4 -100.5t-14 -121t-29.5 -128t-52.5 -125.5l215 -246h-295zM578 145q72 0 124 18.5t89 51.5l-355 399q-47 -51 -76.5 -110.5t-29.5 -136.5q0 -41 11 -80t39 -71t76 -51.5t122 -19.5zM412 1092q0 -51 23.5 -99.5 t70.5 -107.5q74 53 124 107.5t50 125.5q0 66 -31 92.5t-84 26.5q-66 0 -109.5 -36.5t-43.5 -108.5z" />
<glyph unicode="'" horiz-adv-x="401" d="M115 922l-41 614h254l-41 -614h-172z" />
<glyph unicode="(" horiz-adv-x="581" d="M92 629q0 162 14.5 293t41 239.5t65.5 199.5t86 175h231q-47 -84 -89 -179t-73.5 -207t-50 -242t-18.5 -279q0 -152 18.5 -281t50 -240.5t73.5 -207t89 -179.5h-231q-47 84 -86 175.5t-65.5 200t-41 238.5t-14.5 294z" />
<glyph unicode=")" horiz-adv-x="581" d="M489 629q0 -164 -14 -294t-40.5 -238.5t-65.5 -200t-86 -175.5h-232q47 84 89 179.5t74 207t50.5 240.5t18.5 281q0 150 -18.5 279.5t-50.5 241.5t-74 207t-89 179h232q47 -84 86 -175t65.5 -199.5t40.5 -239.5t14 -293z" />
<glyph unicode="*" horiz-adv-x="921" d="M465 1124l-176 -286l-137 133l247 186l-331 107l96 168l272 -220l-71 322h192l-74 -322l275 220l96 -168l-326 -103l246 -184l-137 -133z" />
<glyph unicode="+" horiz-adv-x="925" d="M367 471h-283v193h283v262h192v-262h283v-193h-283v-262h-192v262z" />
<glyph unicode="," horiz-adv-x="483" d="M168 -225l-53 28l67 177l-67 20v266h254v-266z" />
<glyph unicode="-" horiz-adv-x="835" d="M735 664v-193h-635v193h635z" />
<glyph unicode="." horiz-adv-x="483" d="M115 0v266h254v-266h-254z" />
<glyph unicode="/" horiz-adv-x="1128" d="M313 -174h-274l747 1608h275z" />
<glyph unicode="0" horiz-adv-x="1441" d="M733 1440q127 0 235.5 -50.5t187.5 -143.5t123 -224t44 -293q0 -170 -44 -308t-124 -235.5t-193.5 -150.5t-252.5 -53q-133 0 -242 50t-186.5 143t-119.5 224t-42 295q0 170 47 308.5t130 235.5t195.5 149.5t241.5 52.5zM713 217q76 0 140.5 27.5t111.5 89t73.5 159 t26.5 236.5q0 127 -27.5 218t-75 149.5t-107.5 85t-126 26.5t-128 -28.5t-111.5 -91t-79 -160t-29.5 -234.5q0 -129 25.5 -219t69.5 -147.5t104.5 -84t132.5 -26.5z" />
<glyph unicode="1" horiz-adv-x="751" d="M553 1434v-1434h-262v1063q-41 -27 -85 -45.5t-95 -28.5l-23 221q33 6 73 29t77.5 53.5t68.5 67.5t45 74h201z" />
<glyph unicode="2" horiz-adv-x="1067" d="M508 1462q115 0 190.5 -39t120.5 -98t63.5 -131t18.5 -135q0 -76 -19.5 -155t-62.5 -174t-111.5 -211t-168.5 -265h413v-254h-862l221 338l155 252q62 106 99 179t56.5 124t25.5 85t6 60q0 98 -48 151.5t-152 53.5q-78 0 -135.5 -27.5t-96.5 -64.5t-58.5 -74t-19.5 -55 l-34 238q0 25 29.5 59.5t82.5 66t126 54t161 22.5z" />
<glyph unicode="3" horiz-adv-x="1103" d="M166 1362q23 47 112 73.5t211 26.5q137 0 224.5 -38t136.5 -94t66.5 -123.5t17.5 -125.5q0 -186 -141 -286q193 -111 192 -351q0 -121 -44 -209t-117.5 -146t-168 -87t-194.5 -29q-68 0 -134.5 13.5t-121.5 32t-90 38t-37 31.5l61 238q49 -43 135 -75t179 -32 q53 0 103 10.5t89 35t62.5 65.5t23.5 102q0 49 -16.5 93t-49 79t-84 55.5t-118.5 20.5h-182l22 199h92q80 0 134.5 15t86 42t45 61.5t13.5 73.5q0 78 -51.5 125t-163.5 47q-119 0 -183.5 -30.5t-74.5 -67.5z" />
<glyph unicode="4" horiz-adv-x="1189" d="M899 602h174v-213h-174v-389h-262v389h-617l660 1045h219v-832zM637 602v430l-260 -430h260z" />
<glyph unicode="5" horiz-adv-x="1097" d="M162 326q49 -43 130 -75t173 -32q53 0 103 13.5t89 41t62.5 71.5t23.5 106q0 98 -65.5 163.5t-202.5 65.5h-301l90 754h658l-27 -254h-434l-35 -281q289 -4 430 -119.5t141 -316.5q0 -119 -44 -210t-117.5 -153.5t-168 -94.5t-194.5 -32q-68 0 -133.5 13.5t-117.5 32 t-86 38t-36 31.5z" />
<glyph unicode="6" d="M612 664q-117 0 -177 -62.5t-60 -198.5q0 -59 17.5 -102t46 -72.5t66.5 -44t79 -14.5q59 0 103 22.5t72.5 60.5t43 87t14.5 104q0 37 -9 76t-32.5 71t-63 52.5t-100.5 20.5zM565 -37q-94 0 -175 31t-141.5 97.5t-95 172t-34.5 254.5q0 125 29.5 242t78.5 217t114 183 t132.5 141.5t135 91t124.5 32.5l189 -108q-49 0 -132 -48t-167 -125t-149.5 -172t-78.5 -190q23 31 55.5 46.5t67.5 23.5t67.5 9t57.5 1q106 0 186 -34.5t132.5 -93t78 -132.5t25.5 -153q0 -96 -35 -183.5t-99.5 -155t-157.5 -107.5t-208 -40z" />
<glyph unicode="7" horiz-adv-x="1044" d="M1030 1434l-598 -1434h-274l491 1180h-561v254h942z" />
<glyph unicode="8" horiz-adv-x="1220" d="M1034 1112q0 -106 -45 -183t-131 -147q111 -51 182.5 -149t71.5 -227q0 -78 -30.5 -158t-94 -146.5t-161 -108.5t-230.5 -42q-129 0 -221 39t-151.5 102.5t-87 141t-27.5 155.5q0 98 48 187.5t173 181.5q-78 61 -110 148t-32 175q0 70 21.5 137.5t71 121t132.5 86 t205 32.5q117 0 197 -29.5t128 -79t69.5 -112t21.5 -125.5zM848 403q0 111 -65.5 177.5t-166.5 89.5q-47 -8 -92 -30t-79.5 -55.5t-55 -80.5t-20.5 -109q0 -111 58 -173t175 -62q123 0 184.5 68.5t61.5 174.5zM782 1092q0 33 -7 65.5t-27.5 59t-54.5 42t-85 15.5 q-53 0 -90 -16.5t-59.5 -42t-31.5 -60.5t-9 -72q0 -29 7 -63.5t27.5 -67t55.5 -60.5t90 -42q57 10 93 36.5t56.5 60.5t27.5 72t7 73z" />
<glyph unicode="9" d="M539 725q117 0 177 62.5t60 197.5q0 57 -17.5 101t-46 74t-66.5 44.5t-79 14.5q-59 0 -103 -22.5t-73 -60.5t-43 -87.5t-14 -104.5q0 -37 9 -76t32.5 -70.5t63 -52t100.5 -20.5zM586 1425q94 0 175 -30.5t141.5 -97t95 -172t34.5 -255.5q0 -125 -29.5 -241.5t-79 -217 t-114 -183.5t-132 -141t-135 -91t-124.5 -33l-189 109q49 0 132 48t167 125t149.5 172t78.5 189q-23 -31 -55.5 -46t-67.5 -23.5t-68 -9.5t-57 -1q-109 0 -187.5 35t-131 93.5t-78 132t-25.5 153.5q0 94 35 182t99.5 156t157.5 107.5t208 39.5z" />
<glyph unicode=":" horiz-adv-x="536" d="M141 0v266h254v-266h-254zM141 635v266h254v-266h-254z" />
<glyph unicode=";" horiz-adv-x="536" d="M141 635v266h254v-266h-254zM195 -225l-54 28l68 197h-68v266h254v-266z" />
<glyph unicode="&#x3c;" horiz-adv-x="913" d="M500 160l-434 422l434 422h301l-434 -422l434 -422h-301z" />
<glyph unicode="=" horiz-adv-x="1007" d="M883 827v-192h-758v192h758zM883 500v-193h-758v193h758z" />
<glyph unicode="&#x3e;" horiz-adv-x="913" d="M113 160l434 422l-434 422h301l434 -422l-434 -422h-301z" />
<glyph unicode="?" horiz-adv-x="907" d="M541 254v-254h-254v254h254zM328 410q-2 35 -3 55t-2 30.5t-1 14.5v8q0 96 39.5 175t88 152t88.5 144.5t40 155.5q0 98 -59.5 144t-147.5 46t-151.5 -40t-102.5 -93l-58 189q51 76 139.5 110.5t186.5 34.5q111 0 191.5 -40t135 -100.5t80 -133t25.5 -136.5 q0 -66 -23.5 -123t-58.5 -110t-77 -104.5t-76.5 -106.5t-58 -115.5t-23.5 -130.5v-26h-172z" />
<glyph unicode="@" horiz-adv-x="1447" d="M1100 776q-39 41 -100.5 75t-149.5 34q-96 0 -189.5 -50.5t-167 -131t-118.5 -184t-45 -210.5q0 -43 9 -84t32.5 -72.5t60.5 -51t92 -19.5q39 0 89.5 16.5t100.5 47t95 74.5t76 99q0 -8 -3 -30.5t-3 -32.5q0 -27 5 -56.5t18 -55t34.5 -42t54.5 -16.5q31 0 68 11.5 t74.5 29.5t71.5 42t59 48q-49 -88 -120 -160.5t-158 -125t-187.5 -81t-206.5 -28.5q-117 0 -211 36t-159.5 103.5t-101.5 164.5t-36 222q0 168 62.5 311.5t168 249t245.5 165t296 59.5q119 0 214 -37t160.5 -104.5t100.5 -164t35 -215.5q0 -152 -51 -286 q-23 -33 -54.5 -57.5t-67.5 -42t-69.5 -25.5t-60.5 -8q-29 0 -43 11t-22.5 28.5t-9.5 36t-1 32.5q0 41 10.5 89t25.5 105.5t36 127t41 153.5zM852 760q25 0 61.5 -6t49.5 -39q-14 -82 -56.5 -170t-96.5 -161t-114.5 -120t-111.5 -47q-47 0 -68.5 39t-21.5 92q0 86 36.5 162 t92 131t118 87t111.5 32z" />
<glyph unicode="A" horiz-adv-x="1280" d="M879 346h-478l-122 -346h-273l510 1434h248l510 -1434h-273zM492 600h296l-149 420z" />
<glyph unicode="B" horiz-adv-x="1226" d="M158 1434h368q129 0 225.5 -13.5t162 -53.5t98 -113.5t32.5 -194.5q0 -176 -104 -277q111 -47 167 -135t56 -225q0 -125 -44 -206t-113.5 -129t-155.5 -67.5t-170 -19.5h-522v1434zM420 629v-383h166q80 0 138 8t96 29.5t55.5 58.5t17.5 94q0 61 -16.5 99t-48 58.5 t-77.5 28t-104 7.5h-227zM420 1214v-366h98q80 0 131 12t81 36t41 57.5t11 74.5q0 53 -12 89t-43 57.5t-83 30.5t-130 9h-94z" />
<glyph unicode="C" horiz-adv-x="1247" d="M358 717q0 -109 27 -199t79 -155.5t131 -102.5t183 -37q113 0 201 23.5t178 58.5l29 -250q-78 -39 -186.5 -61.5t-221.5 -22.5q-154 0 -283.5 53.5t-223 150.5t-146.5 234.5t-53 307.5q0 168 53 306t146.5 235.5t223.5 150.5t283 53q113 0 221.5 -22.5t186.5 -61.5 l-29 -250q-90 35 -178 58.5t-201 23.5q-104 0 -183 -36.5t-131 -102t-79 -157t-27 -197.5z" />
<glyph unicode="D" horiz-adv-x="1474" d="M158 1434h536q154 0 284 -49.5t223 -141.5t146.5 -225t53.5 -301q0 -170 -53.5 -303t-146.5 -225.5t-223 -140.5t-284 -48h-536v1434zM420 1182v-930h274q209 0 314.5 125t105.5 340t-105.5 340t-314.5 125h-274z" />
<glyph unicode="E" horiz-adv-x="1120" d="M1032 1434v-254h-606v-306h467v-253h-467v-367h625v-254h-893v1434h874z" />
<glyph unicode="F" horiz-adv-x="1067" d="M1032 1434v-254h-612v-306h473v-253h-473v-621h-262v1434h874z" />
<glyph unicode="G" horiz-adv-x="1359" d="M1264 719v-639q-39 -23 -97.5 -42.5t-126 -34.5t-137 -23.5t-131.5 -8.5q-152 0 -279.5 53.5t-221 150.5t-146.5 235.5t-53 308.5q0 168 52 305t147.5 234.5t226.5 150.5t288 53q51 0 110.5 -6t118 -17.5t111 -26.5t91.5 -34l-29 -250q-86 35 -191.5 58.5t-203.5 23.5 q-113 0 -195 -36.5t-135 -102t-79 -155t-26 -193.5q0 -111 28 -202t84 -157.5t140 -103.5t195 -37q84 0 196 23v256h-157v217h420z" />
<glyph unicode="H" horiz-adv-x="1515" d="M1358 0h-262v621h-676v-621h-262v1434h262v-560h676v560h262v-1434z" />
<glyph unicode="I" horiz-adv-x="577" d="M420 0h-262v1434h262v-1434z" />
<glyph unicode="J" horiz-adv-x="577" d="M49 -156q61 0 85 39t24 125v1426h262v-1483q0 -154 -89 -228.5t-243 -74.5h-74l-20 196h55z" />
<glyph unicode="K" horiz-adv-x="1271" d="M971 0l-500 758l500 676h295l-500 -676l500 -758h-295zM420 0h-262v1434h262v-1434z" />
<glyph unicode="L" horiz-adv-x="1024" d="M420 254h590v-254h-852v1434h262v-1180z" />
<glyph unicode="M" horiz-adv-x="1703" d="M1608 0h-273l-121 961l-362 -660l-363 657l-120 -958h-273l197 1434h215l344 -654l344 654h215z" />
<glyph unicode="N" horiz-adv-x="1507" d="M1350 0h-215l-715 983v-983h-262v1434h262l667 -926v926h263v-1434z" />
<glyph unicode="O" horiz-adv-x="1556" d="M778 1462q154 0 284 -53t223 -150.5t146.5 -235.5t53.5 -306q0 -170 -53.5 -307.5t-146.5 -234.5t-223 -150.5t-284 -53.5t-283.5 53.5t-223 150.5t-146.5 234.5t-53 307.5q0 168 53 306t146.5 235.5t223 150.5t283.5 53zM778 223q104 0 183 37t131.5 102.5t79 155.5 t26.5 199q0 106 -26.5 197.5t-79 157t-131 102t-183.5 36.5q-104 0 -183 -36.5t-131 -102t-79 -157t-27 -197.5q0 -109 27 -199t79 -155.5t131 -102.5t183 -37z" />
<glyph unicode="P" horiz-adv-x="1183" d="M158 1434h391q143 0 252.5 -15.5t184.5 -64.5t114 -140.5t39 -240.5q0 -143 -40 -239.5t-119 -155t-197.5 -83t-274.5 -24.5h-88v-471h-262v1434zM420 1214v-497h158q80 0 135 17.5t88 49t47 76.5t14 103q0 68 -10 114.5t-39 77.5t-79 45t-128 14h-186z" />
<glyph unicode="Q" horiz-adv-x="1556" d="M778 1462q154 0 284 -53t223 -150.5t146.5 -235.5t53.5 -306q0 -135 -34 -247t-93 -204l127 -104l-152 -182l-141 116q-170 -125 -414 -125q-154 0 -283.5 53.5t-223 150.5t-146.5 234.5t-53 307.5q0 168 53 306t146.5 235.5t223 150.5t283.5 53zM1143 446q55 113 55 271 q0 106 -26.5 197.5t-79 157t-131 102t-183.5 36.5q-104 0 -183 -36.5t-131 -102t-79 -157t-27 -197.5q0 -109 27 -199t79 -155.5t131 -102.5t183 -37q115 0 205 47l-172 146l152 182z" />
<glyph unicode="R" horiz-adv-x="1282" d="M686 532h-266v-532h-262v1434h524q111 0 202 -21.5t155.5 -72t100.5 -135.5t36 -212q0 -129 -70 -230t-174 -161l323 -602h-272zM420 1214v-436h192q88 0 144.5 16.5t89.5 46t44 70.5t11 90t-12 89t-43 68t-85 42t-138 14h-203z" />
<glyph unicode="S" horiz-adv-x="1187" d="M836 385q0 74 -56.5 120t-140.5 79.5t-182.5 65.5t-182.5 79t-140 118t-56 183q0 72 25.5 147.5t87 138t162 102.5t251.5 40q68 0 135.5 -10t127 -25.5t108.5 -34t78 -36.5l-27 -269q-94 53 -200.5 91t-204.5 38q-49 0 -98.5 -6t-89.5 -23.5t-64.5 -46t-24.5 -73.5 q0 -72 58.5 -112t145.5 -69.5t188.5 -59t188.5 -81t145 -134.5t58 -218q0 -61 -18 -134t-77.5 -136.5t-169 -105.5t-290.5 -42q-166 0 -289.5 32t-185.5 73l31 299q59 -57 173 -105.5t280 -48.5q119 0 186.5 36t67.5 128z" />
<glyph unicode="T" horiz-adv-x="1134" d="M1104 1434v-254h-406v-1180h-262v1180h-405v254h1073z" />
<glyph unicode="U" horiz-adv-x="1470" d="M1329 1434v-820q0 -145 -36 -264t-109.5 -203t-185 -130t-263.5 -46t-263.5 46t-185 130t-109.5 203t-36 264v820h262v-732q0 -100 13.5 -187t49.5 -151.5t100.5 -102.5t168.5 -38t169 38t100.5 102.5t49 151.5t13.5 187v732h262z" />
<glyph unicode="V" horiz-adv-x="1341" d="M672 346l391 1088h272l-501 -1434h-320l-512 1434h272z" />
<glyph unicode="W" horiz-adv-x="1957" d="M1528 0h-232l-313 901l-313 -901h-248l-399 1434h272l283 -977l313 977h184l326 -951l270 951h273z" />
<glyph unicode="X" horiz-adv-x="1316" d="M319 1434l353 -504l323 504h299l-491 -691l522 -743h-303l-371 526l-358 -526h-299l526 715l-504 719h303z" />
<glyph unicode="Y" horiz-adv-x="1302" d="M651 868l396 566h272l-537 -799v-635h-262v635l-536 799h272z" />
<glyph unicode="Z" horiz-adv-x="1146" d="M446 254h596v-254h-1026l686 1180h-593v254h1026z" />
<glyph unicode="[" horiz-adv-x="686" d="M137 1536h527v-223h-295v-1368h295v-224h-527v1815z" />
<glyph unicode="\" horiz-adv-x="1128" d="M68 1434h274l748 -1608h-275z" />
<glyph unicode="]" horiz-adv-x="696" d="M559 -279h-526v254h295v1307h-295v254h526v-1815z" />
<glyph unicode="^" horiz-adv-x="1046" d="M944 819l-422 434l-422 -434v301l422 434l422 -434v-301z" />
<glyph unicode="_" horiz-adv-x="1142" d="M1145 -74v-192h-1147v192h1147z" />
<glyph unicode="`" horiz-adv-x="620" d="M119 1323v213l383 -186v-152z" />
<glyph unicode="a" horiz-adv-x="1019" d="M129 950q190 90 373 90q86 0 154.5 -19.5t116.5 -64.5t73.5 -120.5t25.5 -186.5v-297q0 -57 4.5 -90t13.5 -49t26.5 -20.5t46.5 -4.5h32l-22 -208h-92q-86 0 -140.5 30.5t-85.5 81.5q-49 -59 -136 -91t-181 -32q-61 0 -115.5 20.5t-94.5 60.5t-63.5 96.5t-23.5 129.5 q0 106 63.5 177t153.5 112t189.5 58.5t170.5 19.5q-4 94 -43.5 136t-142.5 42q-70 0 -134.5 -18.5t-145.5 -59.5zM618 471q-53 -2 -108 -14.5t-100 -35t-74 -56t-29 -78.5q0 -63 33 -93t104 -30q35 0 84.5 17.5t89.5 56.5v233z" />
<glyph unicode="b" horiz-adv-x="1171" d="M612 -20q-86 0 -142 20t-110 57l-4 -57h-237v1536h254v-563q49 33 104 50t135 17q123 0 217.5 -43t157 -114.5t95 -169t32.5 -203.5q0 -109 -32.5 -205t-95 -167.5t-157 -114.5t-217.5 -43zM596 188q123 0 190.5 89.5t67.5 232.5t-67.5 232t-190.5 89t-179.5 -89 t-56.5 -232t56.5 -232.5t179.5 -89.5z" />
<glyph unicode="c" horiz-adv-x="917" d="M317 510q0 -143 68 -232.5t190 -89.5q74 0 137.5 21.5t127.5 62.5l22 -217q-49 -31 -116.5 -53t-190.5 -22t-216 43t-155.5 114.5t-94.5 167.5t-32 205q0 106 32 203.5t94.5 169t155.5 114.5t216 43t190.5 -22.5t116.5 -52.5l-22 -217q-63 41 -127 62t-138 21 q-123 0 -190.5 -89t-67.5 -232z" />
<glyph unicode="d" horiz-adv-x="1171" d="M559 1040q78 0 134.5 -17t105.5 -50v563h254v-1536h-240l-4 57q-53 -37 -109.5 -57t-140.5 -20q-123 0 -217 43t-156.5 114.5t-95.5 167.5t-33 205q0 106 33 203.5t95.5 169t156.5 114.5t217 43zM575 188q123 0 179.5 89.5t56.5 232.5t-56.5 232t-179.5 89t-190.5 -89 t-67.5 -232t67.5 -232.5t190.5 -89.5z" />
<glyph unicode="e" horiz-adv-x="1054" d="M549 1040q96 0 179 -31.5t143.5 -89t94 -140.5t33.5 -183q0 -35 -4 -68.5t-12 -70.5h-661q10 -72 39.5 -123t71.5 -84t92 -47.5t102 -14.5q37 0 79 7.5t83.5 18.5t81.5 26.5t71 31.5l12 -215q-59 -31 -145 -54t-197 -23q-139 0 -243.5 43t-173 114.5t-103.5 167.5 t-35 205q0 106 33 202.5t95.5 169t153.5 115.5t210 43zM557 831q-98 0 -154.5 -57t-74.5 -145h413q0 35 -9 70.5t-30.5 65.5t-57.5 48t-87 18z" />
<glyph unicode="f" horiz-adv-x="698" d="M182 0v815h-145l22 209h123v244q0 49 15.5 97t46 86t77 61.5t107.5 23.5q51 0 84 -1t57.5 -3t45 -4t44.5 -4l-22 -211q-35 8 -65.5 9t-43.5 1q-57 0 -74.5 -33t-17.5 -127v-139h226v-209h-226v-815h-254z" />
<glyph unicode="g" horiz-adv-x="1026" d="M987 864h-92h-26q-15 0 -31 -2q31 -47 46 -105.5t15 -119.5q0 -84 -26.5 -156.5t-79 -128t-130 -87.5t-178.5 -32q-29 0 -55.5 3.5t-52.5 7.5q-23 -10 -23 -33q0 -37 63.5 -52.5t192.5 -31.5q55 -6 126 -21.5t134.5 -48t107.5 -90t44 -149.5q0 -150 -125 -240t-365 -90 q-127 0 -219 25.5t-150.5 68.5t-86 97.5t-27.5 111.5q0 74 43 130t125 99q-41 27 -66.5 62t-25.5 86q0 90 102 139q-78 55 -117.5 140t-39.5 190q0 82 27.5 155.5t79.5 129t130 87t178 31.5q137 0 234 -61q31 16 89 30.5t130 14.5h66zM485 420q92 0 139.5 59.5t47.5 157.5 t-47 157.5t-140 59.5q-94 0 -141 -59.5t-47 -157.5t47 -157.5t141 -59.5zM524 -61q-55 6 -123 18q-55 -18 -98 -50t-43 -91q0 -68 67.5 -108t192.5 -40q119 0 198 37t79 102q0 37 -24.5 60.5t-63.5 37t-87.5 21t-97.5 13.5z" />
<glyph unicode="h" horiz-adv-x="1130" d="M373 971q45 29 100 49t113 20q119 0 202.5 -35.5t135 -100t75 -155t23.5 -198.5v-551h-254v551q0 143 -46 211.5t-157 68.5q-66 0 -111.5 -23.5t-80.5 -64.5v-743h-254v1536h254v-565z" />
<glyph unicode="i" horiz-adv-x="491" d="M373 1024v-1024h-254v1024h254zM119 1180v254h254v-254h-254z" />
<glyph unicode="j" horiz-adv-x="491" d="M373 1024v-1251q0 -55 -15.5 -104.5t-47 -85.5t-82 -57.5t-117.5 -21.5h-93l-22 209q41 0 65.5 3t37 18.5t16.5 48.5t4 94v1147h254zM119 1180v254h254v-254h-254z" />
<glyph unicode="k" horiz-adv-x="995" d="M698 0l-325 455v-455h-254v1536h254v-932l325 420h287l-375 -492l375 -532h-287z" />
<glyph unicode="l" horiz-adv-x="542" d="M373 1536v-1184q0 -61 5 -95t18.5 -49t38 -17.5t61.5 -2.5l-23 -208h-92q-68 0 -118 21.5t-81.5 57t-47 85t-15.5 104.5v1288h254z" />
<glyph unicode="m" horiz-adv-x="1773" d="M1411 0v551q0 141 -42 210.5t-148 69.5q-63 0 -102.5 -16t-62 -44t-30.5 -63.5t-8 -74.5v-633h-252v551q0 82 -12.5 136t-37 87t-63.5 45t-92 12q-61 0 -107 -21.5t-81 -61.5v-748h-254v1024h209l14 -80q45 37 112.5 66.5t149.5 29.5q92 0 176 -37.5t138 -117.5 q12 25 40.5 52.5t72.5 50t101.5 37.5t124.5 15q104 0 180 -35.5t127.5 -101t76 -156t24.5 -196.5v-551h-254z" />
<glyph unicode="n" horiz-adv-x="1130" d="M768 0v551q0 143 -46 211.5t-157 68.5q-66 0 -111.5 -23.5t-80.5 -64.5v-743h-254v1024h237l4 -61q45 33 105.5 55t120.5 22q119 0 202.5 -35.5t135 -100t75 -155t23.5 -198.5v-551h-254z" />
<glyph unicode="o" d="M575 1040q123 0 219.5 -43t163 -114.5t101.5 -169t35 -203.5q0 -109 -35 -205t-101.5 -167.5t-163 -114.5t-219.5 -43t-219 43t-162.5 114.5t-101.5 167.5t-35 205q0 106 35 203.5t101.5 169t162.5 114.5t219 43zM575 188q123 0 191 89.5t68 232.5t-68 232t-191 89 t-190.5 -89t-67.5 -232t67.5 -232.5t190.5 -89.5z" />
<glyph unicode="p" horiz-adv-x="1171" d="M612 -20q-80 0 -134 17t-105 52v-545h-254v1520h237l4 -59q53 35 109.5 55t142.5 20q123 0 217.5 -43t157 -114.5t95 -169t32.5 -203.5q0 -109 -32.5 -205t-95 -167.5t-157 -114.5t-217.5 -43zM596 188q123 0 190.5 89.5t67.5 232.5t-67.5 232t-190.5 89t-179.5 -89 t-56.5 -232t56.5 -232.5t179.5 -89.5z" />
<glyph unicode="q" horiz-adv-x="1171" d="M559 1040q90 0 148.5 -22.5t115.5 -63.5l11 70h219v-1520h-254v545q-51 -35 -106.5 -52t-133.5 -17q-123 0 -217 43t-156.5 114.5t-95.5 167.5t-33 205q0 106 33 203.5t95.5 169t156.5 114.5t217 43zM575 188q123 0 179.5 89.5t56.5 232.5t-56.5 232t-179.5 89 t-190.5 -89t-67.5 -232t67.5 -232.5t190.5 -89.5z" />
<glyph unicode="r" horiz-adv-x="700" d="M653 801h-94q-63 0 -113.5 -30t-72.5 -73v-698h-254v1024h237l6 -109q20 20 49 43t64 41.5t75 29.5t85 11h67z" />
<glyph unicode="s" horiz-adv-x="870" d="M567 283q0 51 -36.5 79.5t-93 48t-122 37t-122 49t-93.5 82t-37 136.5q0 53 18.5 110.5t61.5 105.5t115 78.5t180 30.5q49 0 98.5 -7t92.5 -17t76.5 -23.5t54.5 -27.5l-23 -217q-68 45 -132 77.5t-148 32.5q-66 0 -118 -25.5t-52 -87.5q0 -51 40 -76.5t99 -44t128 -36 t128 -52t99 -94t40 -161.5q0 -47 -13 -100.5t-56 -97.5t-122 -73.5t-210 -29.5q-123 0 -212 23.5t-134 51.5l22 217q25 -18 61 -36.5t77.5 -33t88 -23.5t89.5 -9q45 0 75.5 10t48 26.5t24.5 37.5t7 39z" />
<glyph unicode="t" horiz-adv-x="710" d="M438 815v-463q0 -59 4 -92t19.5 -48t47.5 -19.5t85 -4.5h70l-23 -208h-182q-72 0 -124 23.5t-86 61t-49.5 86t-15.5 97.5v567h-145l22 209h123v225l254 27v-252h226v-209h-226z" />
<glyph unicode="u" horiz-adv-x="1130" d="M362 1024v-551q0 -143 46.5 -211.5t156.5 -68.5q63 0 110.5 22.5t82.5 63.5v745h254v-1024h-238l-4 61q-45 -35 -105.5 -56t-119.5 -21q-121 0 -204 35.5t-134 100t-74.5 155t-23.5 198.5v551h253z" />
<glyph unicode="v" horiz-adv-x="991" d="M983 1024l-381 -1024h-213l-381 1024h248l240 -709l239 709h248z" />
<glyph unicode="w" horiz-adv-x="1486" d="M1466 1024l-299 -1024h-213l-211 668l-211 -668h-213l-299 1024h248l176 -715l187 715h225l184 -715l179 715h247z" />
<glyph unicode="x" horiz-adv-x="1005" d="M324 1024l186 -289l172 289h303l-332 -512l332 -512h-303l-186 289l-172 -289h-304l330 512l-330 512h304z" />
<glyph unicode="y" horiz-adv-x="1099" d="M285 1024l262 -659l266 659h283l-641 -1520h-254l227 564l-426 956h283z" />
<glyph unicode="z" horiz-adv-x="966" d="M63 1024h863l-453 -799h430v-225h-860l453 799h-433v225z" />
<glyph unicode="{" horiz-adv-x="651" d="M27 629q45 25 77.5 51.5t52 60t29 76.5t9.5 103q0 68 -7.5 143.5t-7.5 134.5q0 82 22.5 144.5t75 105.5t137.5 65.5t212 22.5v-223q-92 0 -141.5 -9.5t-73 -40t-27.5 -88t-4 -151.5q0 -41 3 -84t3 -84q0 -66 -19.5 -126t-84.5 -101q66 -41 85 -93.5t19 -117.5 q0 -41 -3 -87t-3 -95q0 -96 4 -153.5t27.5 -88.5t73 -40t141.5 -9v-224q-244 0 -345.5 84t-101.5 254q0 59 7.5 135t7.5 146q0 106 -35 173t-133 116z" />
<glyph unicode="|" horiz-adv-x="454" d="M317 -430h-180v1966h180v-1966z" />
<glyph unicode="}" horiz-adv-x="651" d="M625 629q-98 -49 -133 -116t-35 -173q0 -70 7 -145.5t7 -135.5q0 -170 -101.5 -254t-344.5 -84v224q92 0 141 9t72.5 40t27.5 88t4 154q0 49 -3 95t-3 87q0 66 19.5 118t85.5 93q-66 41 -85.5 101.5t-19.5 125.5q0 41 3 84t3 84q0 94 -4 151.5t-27.5 88t-72.5 40 t-141 9.5v223q125 0 211 -22.5t138 -65.5t74.5 -105.5t22.5 -144.5q0 -59 -7 -135t-7 -143q0 -59 8 -102.5t28.5 -77t52.5 -60t79 -51.5z" />
<glyph unicode="~" horiz-adv-x="944" d="M858 670q-6 -39 -25.5 -81t-50 -77t-72.5 -57.5t-94 -22.5q-41 0 -75.5 13.5t-66.5 30t-60.5 29.5t-57.5 13q-47 0 -69.5 -32.5t-28.5 -63.5l-170 41q6 51 30.5 95t60.5 76t79 49t86 17q45 0 78 -13t59.5 -29.5t51 -30t53.5 -13.5q47 0 78.5 33t37.5 64z" />
<glyph unicode="&#xa1;" horiz-adv-x="532" d="M139 770v254h254v-254h-254zM393 614v-1126h-213v1126h213z" />
<glyph unicode="&#xa2;" horiz-adv-x="970" d="M330 713q0 -143 67.5 -232.5t190.5 -89.5q74 0 137 21.5t127 62.5l29 -215q-49 -31 -105.5 -51.5t-152.5 -26.5l30 -248h-196l32 252q-104 14 -182 61.5t-131 117t-79.5 158.5t-26.5 190q0 98 26.5 188t80.5 161t133 118t184 59l-37 293h196l-32 -291q94 -4 151 -25.5 t102 -48.5l-22 -217q-63 41 -126.5 62.5t-137.5 21.5q-123 0 -190.5 -89t-67.5 -232z" />
<glyph unicode="&#xa3;" horiz-adv-x="1071" d="M319 811v213q0 74 10.5 148.5t45.5 136t102.5 99.5t184.5 38q135 0 206.5 -55.5t96.5 -153.5l-99 -125q-10 33 -22.5 63.5t-29.5 53t-44 36t-65 13.5q-53 0 -83 -23.5t-45.5 -63.5t-18.5 -94.5t-3 -113.5v-172h375l-41 -172h-342q-8 -117 -29.5 -216t-68.5 -210h497v-213 h-883q121 143 173.5 304t68.5 335h-182l41 172h155z" />
<glyph unicode="&#xa4;" horiz-adv-x="1247" d="M623 1243q74 0 138 -16.5t118 -44.5l153 204l123 -102l-149 -201q66 -72 100.5 -168t34.5 -202q0 -111 -36 -206t-101 -167l151 -199l-123 -102l-153 203q-109 -59 -256 -60q-147 0 -256 60l-152 -203l-123 102l148 199q-66 72 -101 167t-35 206t35 206t103 166l-150 199 l123 102l152 -202q109 59 256 59zM623 391q123 0 190.5 89t67.5 233q0 143 -68 232t-190 89q-123 0 -190.5 -89t-67.5 -232t67.5 -232.5t190.5 -89.5z" />
<glyph unicode="&#xa5;" horiz-adv-x="1445" d="M555 690l-500 744h273l395 -566l395 566h273l-500 -744h299l-53 -141h-283v-125h336l-53 -141h-283v-283h-262v283h-338l49 141h289v125h-338l49 141h252z" />
<glyph unicode="&#xa6;" horiz-adv-x="458" d="M319 389v-819h-180v819h180zM139 582v954h180v-954h-180z" />
<glyph unicode="&#xa7;" horiz-adv-x="933" d="M399 836q-18 0 -39.5 -8.5t-42 -24t-34 -35.5t-13.5 -43q0 -49 27 -86t68 -63.5t87 -43t87 -26.5q18 0 39.5 12t42 30.5t34 42t13.5 46.5q0 49 -28 83t-68 55.5t-87 36t-86 24.5zM858 682q0 -37 -6 -80t-25.5 -85t-54.5 -78t-90 -58q45 -37 66.5 -88t21.5 -125 q0 -57 -16.5 -117.5t-56.5 -111t-107.5 -82t-169.5 -31.5q-41 0 -86 7t-86 18.5t-73 27t-48 31.5l18 215q57 -41 131 -71.5t134 -30.5q35 0 67.5 5t59 18t42 35.5t15.5 59.5q0 57 -38 90t-96.5 58.5t-125 51.5t-124.5 67t-96 105.5t-38 166.5q0 37 6 80t24.5 84t53.5 76.5 t90 60.5q-45 35 -66.5 86t-21.5 127q0 57 16.5 117.5t56 111t108.5 82t171 31.5q43 0 87 -7t84 -19.5t73 -28t49 -29.5l-19 -215q-57 41 -130.5 71.5t-133.5 30.5q-35 0 -67.5 -5t-59 -18t-42 -36t-15.5 -59q0 -55 38 -89t96 -59.5t125 -51.5t125 -67t96 -105.5t38 -166.5z " />
<glyph unicode="&#xa8;" horiz-adv-x="864" d="M178 1180v217h199v-217h-199zM487 1180v217h199v-217h-199z" />
<glyph unicode="&#xa9;" horiz-adv-x="1435" d="M565 743q0 -88 42 -146t128 -58q47 0 90 12t88 33l17 -142q-41 -23 -92.5 -34t-102.5 -11q-72 0 -132 24.5t-103 70t-67.5 110t-24.5 141.5q0 80 24.5 143.5t67.5 109.5t103.5 71t131.5 25q51 0 102.5 -12.5t92.5 -30.5l-17 -144q-45 18 -88 30.5t-90 12.5 q-86 0 -128 -56.5t-42 -148.5zM719 1419q137 0 254 -48t202 -136t132 -212t47 -275q0 -152 -47 -276t-132 -212t-202 -136t-254 -48q-139 0 -256 48t-201 136t-132 212t-48 276t48 275.5t132 211.5t201 136t256 48zM719 186q127 0 222 43t158.5 119t95.5 178.5t32 221.5 t-32 221t-95.5 177t-158.5 118t-222 43q-129 0 -224.5 -43t-159 -118t-95 -177.5t-31.5 -220.5q0 -119 31.5 -221.5t95 -178.5t159 -119t224.5 -43z" />
<glyph unicode="&#xaa;" horiz-adv-x="632" d="M104 1493q111 53 201 53q92 0 145.5 -45t53.5 -166v-147q0 -45 5 -54.5t21 -9.5h35l-14 -137h-62q-80 0 -112 45q-29 -25 -70 -38t-82 -13q-68 0 -116 45t-48 125q0 51 29 87t71 59.5t91 34.5t90 16q-4 29 -20.5 42t-51.5 13q-53 0 -151 -47zM276 1100q12 0 32 11t36 28 v94l-45 -8q-23 -4 -41 -13.5t-30.5 -22.5t-12.5 -36t17 -38t44 -15z" />
<glyph unicode="&#xab;" horiz-adv-x="1243" d="M334 160l-311 422l311 422h301l-311 -422l311 -422h-301zM866 160l-311 422l311 422h301l-311 -422l311 -422h-301z" />
<glyph unicode="&#xac;" horiz-adv-x="1163" d="M850 639h-750v192h942v-522h-192v330z" />
<glyph unicode="&#xad;" horiz-adv-x="909" d="M772 664v-193h-635v193h635z" />
<glyph unicode="&#xae;" horiz-adv-x="1435" d="M745 659h-92v-235h-147v670h248q104 0 168.5 -45t64.5 -168q0 -57 -29.5 -103.5t-74.5 -75.5l147 -278h-153zM653 971v-176h70q68 0 89.5 25.5t21.5 64.5q0 41 -20.5 63.5t-86.5 22.5h-74zM719 1419q137 0 254 -48t202 -136t132 -212t47 -275q0 -152 -47 -276t-132 -212 t-202 -136t-254 -48q-139 0 -256 48t-201 136t-132 212t-48 276t48 275.5t132 211.5t201 136t256 48zM719 186q127 0 222 43t158.5 119t95.5 178.5t32 221.5t-32 221t-95.5 177t-158.5 118t-222 43q-129 0 -224.5 -43t-159 -118t-95 -177.5t-31.5 -220.5q0 -119 31.5 -221.5 t95 -178.5t159 -119t224.5 -43z" />
<glyph unicode="&#xb0;" horiz-adv-x="665" d="M332 1546q63 0 114.5 -22.5t86 -61.5t53 -89t18.5 -107t-18.5 -107.5t-53 -88.5t-86 -60.5t-114.5 -22.5t-113.5 22.5t-85.5 60.5t-53.5 88t-18.5 108q0 57 18.5 107t53.5 89t85.5 61.5t113.5 22.5zM332 1092q66 0 98.5 48t32.5 126t-33 127t-98 49q-61 0 -96 -49.5 t-35 -126.5q0 -78 35 -126t96 -48z" />
<glyph unicode="&#xb1;" horiz-adv-x="954" d="M381 635h-283v192h283v263h192v-263h283v-192h-283v-262h-192v262zM856 254v-193h-758v193h758z" />
<glyph unicode="&#xb2;" horiz-adv-x="618" d="M297 1550q61 0 102 -20.5t64.5 -53t34 -70.5t10.5 -73q0 -37 -8 -75.5t-27.5 -84t-51.5 -99.5t-77 -122h188v-159h-471q100 150 157.5 243.5t86.5 152t37 87.5t8 47q0 84 -80 84q-33 0 -57.5 -12.5t-41.5 -27.5t-25.5 -30.5t-8.5 -23.5l-53 119q0 14 15.5 34.5t44 39 t67.5 31.5t86 13z" />
<glyph unicode="&#xb3;" horiz-adv-x="606" d="M100 1485q14 29 63.5 47t115.5 18q74 0 118.5 -20.5t70.5 -51t35 -67.5t9 -68q0 -88 -55 -139q80 -61 80 -176q0 -63 -22.5 -110.5t-61.5 -78t-88.5 -46t-100.5 -15.5q-37 0 -72.5 8.5t-64.5 20.5t-47.5 24.5t-20.5 20.5l37 149q31 -27 77 -47t87 -20q45 0 82 18.5 t37 69.5q0 41 -27.5 73.5t-87.5 32.5h-108l14 134h61q70 0 94.5 22.5t24.5 54.5q0 31 -20.5 49.5t-67.5 18.5q-51 0 -78.5 -13.5t-31.5 -29.5z" />
<glyph unicode="&#xb4;" horiz-adv-x="620" d="M119 1198v152l383 186v-213z" />
<glyph unicode="&#xb5;" horiz-adv-x="1245" d="M1040 352q0 -57 4.5 -90t13.5 -49t26.5 -20.5t45.5 -4.5h33l-22 -208h-92q-82 0 -136.5 28.5t-85.5 77.5q-43 -41 -112.5 -71.5t-141.5 -30.5q-100 0 -182 28v-508h-254v1520h254v-551q0 -143 46 -211.5t157 -68.5q63 0 110.5 22.5t81.5 63.5v745h254v-672z" />
<glyph unicode="&#xb6;" horiz-adv-x="1284" d="M866 0v1214h-127v-1214h-141v469q-133 8 -232.5 52t-165 111.5t-99 151.5t-33.5 170q0 90 35.5 176.5t109.5 154t184.5 108.5t257.5 41h533v-220h-141v-1214h-181z" />
<glyph unicode="&#xb7;" horiz-adv-x="516" d="M131 436v266h254v-266h-254z" />
<glyph unicode="&#xb8;" horiz-adv-x="620" d="M408 -125l213 19l-205 -273l-152 -18z" />
<glyph unicode="&#xb9;" horiz-adv-x="419" d="M315 1536v-743h-163v516q-41 -23 -86 -31l-15 143q18 4 39 15.5t40.5 27t34.5 35t21 37.5h129z" />
<glyph unicode="&#xba;" horiz-adv-x="753" d="M383 1536q68 0 124 -25.5t97 -73.5t63.5 -117t22.5 -153q0 -88 -22.5 -159.5t-64.5 -121.5t-100.5 -78t-129.5 -28q-141 0 -224 99.5t-83 271.5q0 88 24.5 159.5t67.5 122t100 77t125 26.5zM375 932q66 0 109.5 53t43.5 182q0 117 -45 169.5t-102 52.5t-104.5 -56.5 t-47.5 -181.5q0 -119 42.5 -169t103.5 -50z" />
<glyph unicode="&#xbb;" horiz-adv-x="1243" d="M76 160l311 422l-311 422h301l311 -422l-311 -422h-301zM608 160l312 422l-312 422h301l312 -422l-312 -422h-301z" />
<glyph unicode="&#xbc;" horiz-adv-x="1433" d="M360 -23h-213l863 1457h213zM1278 737v-405h84v-139h-84v-193h-164v193h-315l344 550h137zM334 1434v-744h-164v516q-41 -23 -86 -30l-14 143q18 4 38.5 15.5t40 26.5t35 34.5t21.5 38.5h129zM1126 332v190l-110 -190h110z" />
<glyph unicode="&#xbd;" horiz-adv-x="1511" d="M360 -23h-213l863 1457h213zM1204 758q61 0 102.5 -20.5t65 -53.5t33.5 -71t10 -72q0 -37 -8 -76t-27.5 -84t-51.5 -99.5t-77 -121.5h189v-160h-471q100 150 157.5 244t86 152.5t36.5 87t8 46.5q0 84 -79 84q-33 0 -57.5 -12t-42 -27.5t-26 -31t-8.5 -23.5l-53 119 q0 14 15.5 34.5t44 39t67.5 32t86 13.5zM334 1434v-744h-164v516q-41 -23 -86 -30l-14 143q18 4 38.5 15.5t40 26.5t35 34.5t21.5 38.5h129z" />
<glyph unicode="&#xbe;" horiz-adv-x="1472" d="M399 -23h-213l863 1457h213zM113 1382q14 29 63 47.5t115 18.5q74 0 119 -20.5t70.5 -51t34.5 -67.5t9 -68q0 -88 -55 -139q80 -61 80 -176q0 -63 -22.5 -110.5t-61.5 -78t-88 -46t-101 -15.5q-37 0 -72.5 8t-64 20.5t-47 24.5t-20.5 21l37 149q31 -27 76.5 -47.5 t86.5 -20.5q45 0 82 18.5t37 70.5q0 41 -27.5 73.5t-87.5 32.5h-108l14 133h62q70 0 94 22.5t24 55.5q0 31 -20 49.5t-68 18.5q-51 0 -78.5 -13.5t-31.5 -29.5zM1317 737v-405h84v-139h-84v-193h-164v193h-315l344 550h137zM1165 332v190l-110 -190h110z" />
<glyph unicode="&#xbf;" horiz-adv-x="903" d="M371 770v254h254v-254h-254zM584 614q2 -35 3 -55t2 -31.5t1 -15.5v-6q0 -96 -40 -175t-88 -153t-88 -146.5t-40 -154.5q0 -98 59.5 -144t147.5 -46t151.5 40t102.5 93l57 -189q-51 -76 -139 -110.5t-187 -34.5q-111 0 -191.5 40t-135 100.5t-80 132t-25.5 137.5 t23.5 123t58.5 110t77 104.5t77 106.5t58.5 115.5t23.5 132.5v26h172z" />
<glyph unicode="&#xc0;" horiz-adv-x="1280" d="M879 346h-478l-122 -346h-273l510 1434h248l510 -1434h-273zM449 1733v213l430 -187l-48 -151zM492 600h296l-149 420z" />
<glyph unicode="&#xc1;" horiz-adv-x="1280" d="M879 346h-478l-122 -346h-273l510 1434h248l510 -1434h-273zM449 1608v151l430 187l-48 -213zM492 600h296l-149 420z" />
<glyph unicode="&#xc2;" horiz-adv-x="1280" d="M879 346h-478l-122 -346h-273l510 1434h248l510 -1434h-273zM639 1753l-301 -145v151l301 187l240 -187l61 -151zM492 600h296l-149 420z" />
<glyph unicode="&#xc3;" horiz-adv-x="1280" d="M879 346h-478l-122 -346h-273l510 1434h248l510 -1434h-273zM1024 1874q-6 -39 -25.5 -81t-50 -77t-72.5 -57.5t-94 -22.5q-41 0 -75.5 13.5t-66.5 30t-60.5 29.5t-57.5 13q-47 0 -69.5 -32.5t-28.5 -63.5l-170 41q6 51 30.5 95t60.5 76t79 49.5t86 17.5q45 0 78 -13.5 t59.5 -30t51 -29.5t53.5 -13q47 0 79.5 32.5t47.5 63.5zM492 600h296l-149 420z" />
<glyph unicode="&#xc4;" horiz-adv-x="1280" d="M879 346h-478l-122 -346h-273l510 1434h248l510 -1434h-273zM492 600h296l-149 420zM385 1589v217h199v-217h-199zM694 1589v217h199v-217h-199z" />
<glyph unicode="&#xc5;" horiz-adv-x="1280" d="M879 346h-478l-122 -346h-273l510 1434h248l510 -1434h-273zM639 1956q100 0 156.5 -54.5t56.5 -129.5q0 -76 -56.5 -129.5t-156.5 -53.5q-98 0 -155.5 53.5t-57.5 129.5t57.5 130t155.5 54zM492 600h296l-149 420zM639 1688q39 0 64.5 22.5t25.5 61.5q0 37 -25.5 60 t-64.5 23t-64.5 -23.5t-25.5 -59.5q0 -39 25.5 -61.5t64.5 -22.5z" />
<glyph unicode="&#xc6;" horiz-adv-x="1775" d="M1688 1434v-254h-607v-306h467v-253h-467v-367h625v-254h-893v346h-397l-166 -346h-273l699 1434h1012zM813 600v574l-276 -574h276z" />
<glyph unicode="&#xc7;" horiz-adv-x="1249" d="M358 717q0 -109 27 -199t79 -155.5t131 -102.5t183 -37q113 0 201 23.5t178 58.5l29 -250q-78 -39 -186.5 -61.5t-221.5 -22.5q-154 0 -283.5 53.5t-223 150.5t-146.5 234.5t-53 307.5q0 168 53 306t146.5 235.5t223.5 150.5t283 53q113 0 221.5 -22.5t186.5 -61.5 l-29 -250q-90 35 -178 58.5t-201 23.5q-104 0 -183 -36.5t-131 -102t-79 -157t-27 -197.5zM686 -125l213 19l-205 -273l-151 -18z" />
<glyph unicode="&#xc8;" horiz-adv-x="1120" d="M1032 1434v-254h-606v-306h467v-253h-467v-367h625v-254h-893v1434h874zM369 1733v213l383 -187v-151z" />
<glyph unicode="&#xc9;" horiz-adv-x="1120" d="M1032 1434v-254h-606v-306h467v-253h-467v-367h625v-254h-893v1434h874zM369 1608v151l383 187v-213z" />
<glyph unicode="&#xca;" horiz-adv-x="1120" d="M1032 1434v-254h-606v-306h467v-253h-467v-367h625v-254h-893v1434h874zM561 1753l-301 -145v151l301 187l301 -187v-151z" />
<glyph unicode="&#xcb;" horiz-adv-x="1120" d="M1032 1434v-254h-606v-306h467v-253h-467v-367h625v-254h-893v1434h874zM616 1589v217h199v-217h-199zM307 1589v217h199v-217h-199z" />
<glyph unicode="&#xcc;" horiz-adv-x="577" d="M420 0h-262v1434h262v-1434zM2 1733v213l418 -187l-35 -151z" />
<glyph unicode="&#xcd;" horiz-adv-x="577" d="M420 0h-262v1434h262v-1434zM193 1608v151l382 187v-213z" />
<glyph unicode="&#xce;" horiz-adv-x="577" d="M420 0h-262v1434h262v-1434zM289 1753l-301 -145v151l301 187l301 -187v-151z" />
<glyph unicode="&#xcf;" horiz-adv-x="577" d="M420 0h-262v1434h262v-1434zM35 1589v217h198v-217h-198zM344 1589v217h199v-217h-199z" />
<glyph unicode="&#xd0;" horiz-adv-x="1497" d="M180 805v629h537q154 0 283.5 -49.5t223 -141.5t146.5 -225t53 -301q0 -170 -53 -303t-146.5 -225.5t-223.5 -140.5t-283 -48h-537v612h-188v193h188zM442 1182v-377h250v-193h-250v-360h275q209 0 314.5 125t105.5 340t-105.5 340t-314.5 125h-275z" />
<glyph unicode="&#xd1;" horiz-adv-x="1507" d="M1350 0h-215l-715 983v-983h-262v1434h262l667 -926v926h263v-1434zM1118 1874q-6 -39 -25.5 -81t-50 -77t-72.5 -57.5t-93 -22.5q-41 0 -76 13.5t-67 30t-60.5 29.5t-57.5 13q-47 0 -69.5 -32.5t-28.5 -63.5l-170 41q6 51 30.5 95t60.5 76t79 49.5t86 17.5 q45 0 78 -13.5t59.5 -30t51 -29.5t53.5 -13q47 0 78.5 32.5t38.5 63.5z" />
<glyph unicode="&#xd2;" horiz-adv-x="1556" d="M778 1462q154 0 284 -53t223 -150.5t146.5 -235.5t53.5 -306q0 -170 -53.5 -307.5t-146.5 -234.5t-223 -150.5t-284 -53.5t-283.5 53.5t-223 150.5t-146.5 234.5t-53 307.5q0 168 53 306t146.5 235.5t223 150.5t283.5 53zM778 223q104 0 183 37t131.5 102.5t79 155.5 t26.5 199q0 106 -26.5 197.5t-79 157t-131 102t-183.5 36.5q-104 0 -183 -36.5t-131 -102t-79 -157t-27 -197.5q0 -109 27 -199t79 -155.5t131 -102.5t183 -37zM586 1733v213l383 -187v-151z" />
<glyph unicode="&#xd3;" horiz-adv-x="1556" d="M778 1462q154 0 284 -53t223 -150.5t146.5 -235.5t53.5 -306q0 -170 -53.5 -307.5t-146.5 -234.5t-223 -150.5t-284 -53.5t-283.5 53.5t-223 150.5t-146.5 234.5t-53 307.5q0 168 53 306t146.5 235.5t223 150.5t283.5 53zM778 223q104 0 183 37t131.5 102.5t79 155.5 t26.5 199q0 106 -26.5 197.5t-79 157t-131 102t-183.5 36.5q-104 0 -183 -36.5t-131 -102t-79 -157t-27 -197.5q0 -109 27 -199t79 -155.5t131 -102.5t183 -37zM586 1608v151l383 187v-213z" />
<glyph unicode="&#xd4;" horiz-adv-x="1556" d="M778 1462q154 0 284 -53t223 -150.5t146.5 -235.5t53.5 -306q0 -170 -53.5 -307.5t-146.5 -234.5t-223 -150.5t-284 -53.5t-283.5 53.5t-223 150.5t-146.5 234.5t-53 307.5q0 168 53 306t146.5 235.5t223 150.5t283.5 53zM778 223q104 0 183 37t131.5 102.5t79 155.5 t26.5 199q0 106 -26.5 197.5t-79 157t-131 102t-183.5 36.5q-104 0 -183 -36.5t-131 -102t-79 -157t-27 -197.5q0 -109 27 -199t79 -155.5t131 -102.5t183 -37zM778 1753l-301 -145v151l301 187l301 -187v-151z" />
<glyph unicode="&#xd5;" horiz-adv-x="1556" d="M778 1462q154 0 284 -53t223 -150.5t146.5 -235.5t53.5 -306q0 -170 -53.5 -307.5t-146.5 -234.5t-223 -150.5t-284 -53.5t-283.5 53.5t-223 150.5t-146.5 234.5t-53 307.5q0 168 53 306t146.5 235.5t223 150.5t283.5 53zM778 223q104 0 183 37t131.5 102.5t79 155.5 t26.5 199q0 106 -26.5 197.5t-79 157t-131 102t-183.5 36.5q-104 0 -183 -36.5t-131 -102t-79 -157t-27 -197.5q0 -109 27 -199t79 -155.5t131 -102.5t183 -37zM1163 1874q-6 -39 -25.5 -81t-50 -77t-72.5 -57.5t-93 -22.5q-41 0 -76 13.5t-66.5 30t-60.5 29.5t-57 13 q-47 0 -70 -32.5t-29 -63.5l-170 41q6 51 31 95t60.5 76t78.5 49.5t86 17.5q45 0 78 -13.5t59.5 -30t51 -29.5t53.5 -13q47 0 78.5 32.5t38.5 63.5z" />
<glyph unicode="&#xd6;" horiz-adv-x="1556" d="M778 1462q154 0 284 -53t223 -150.5t146.5 -235.5t53.5 -306q0 -170 -53.5 -307.5t-146.5 -234.5t-223 -150.5t-284 -53.5t-283.5 53.5t-223 150.5t-146.5 234.5t-53 307.5q0 168 53 306t146.5 235.5t223 150.5t283.5 53zM778 223q104 0 183 37t131.5 102.5t79 155.5 t26.5 199q0 106 -26.5 197.5t-79 157t-131 102t-183.5 36.5q-104 0 -183 -36.5t-131 -102t-79 -157t-27 -197.5q0 -109 27 -199t79 -155.5t131 -102.5t183 -37zM524 1589v217h199v-217h-199zM834 1589v217h198v-217h-198z" />
<glyph unicode="&#xd7;" horiz-adv-x="880" d="M315 567l-219 219l125 125l219 -219l219 219l125 -125l-219 -219l219 -219l-125 -125l-219 219l-219 -219l-125 125z" />
<glyph unicode="&#xd8;" horiz-adv-x="1556" d="M778 1462q178 0 320 -69l51 73h274l-141 -206q98 -98 150.5 -234.5t52.5 -308.5q0 -170 -53.5 -307.5t-146.5 -234.5t-223 -150.5t-284 -53.5q-92 0 -175 19.5t-154 54.5l-74 -108h-275l166 241q-92 98 -143 234.5t-51 304.5t53 306t146.5 235.5t223 150.5t283.5 53z M778 223q104 0 183 37t131.5 102.5t79 155.5t26.5 199q0 186 -76 311l-526 -770q82 -35 182 -35zM358 717q0 -88 17.5 -165t52.5 -138l522 764q-74 33 -172 32q-104 0 -183 -36.5t-131 -102t-79 -157t-27 -197.5z" />
<glyph unicode="&#xd9;" horiz-adv-x="1470" d="M1329 1434v-820q0 -145 -36 -264t-109.5 -203t-185 -130t-263.5 -46t-263.5 46t-185 130t-109.5 203t-36 264v820h262v-732q0 -100 13.5 -187t49.5 -151.5t100.5 -102.5t168.5 -38t169 38t100.5 102.5t49 151.5t13.5 187v732h262zM543 1733v213l383 -187v-151z" />
<glyph unicode="&#xda;" horiz-adv-x="1470" d="M1329 1434v-820q0 -145 -36 -264t-109.5 -203t-185 -130t-263.5 -46t-263.5 46t-185 130t-109.5 203t-36 264v820h262v-732q0 -100 13.5 -187t49.5 -151.5t100.5 -102.5t168.5 -38t169 38t100.5 102.5t49 151.5t13.5 187v732h262zM543 1608v151l383 187v-213z" />
<glyph unicode="&#xdb;" horiz-adv-x="1470" d="M1329 1434v-820q0 -145 -36 -264t-109.5 -203t-185 -130t-263.5 -46t-263.5 46t-185 130t-109.5 203t-36 264v820h262v-732q0 -100 13.5 -187t49.5 -151.5t100.5 -102.5t168.5 -38t169 38t100.5 102.5t49 151.5t13.5 187v732h262zM735 1753l-301 -145v151l301 187 l301 -187v-151z" />
<glyph unicode="&#xdc;" horiz-adv-x="1470" d="M1329 1434v-820q0 -145 -36 -264t-109.5 -203t-185 -130t-263.5 -46t-263.5 46t-185 130t-109.5 203t-36 264v820h262v-732q0 -100 13.5 -187t49.5 -151.5t100.5 -102.5t168.5 -38t169 38t100.5 102.5t49 151.5t13.5 187v732h262zM481 1589v217h199v-217h-199zM791 1589 v217h198v-217h-198z" />
<glyph unicode="&#xdd;" horiz-adv-x="1302" d="M651 868l396 566h272l-537 -799v-635h-262v635l-536 799h272zM459 1608v151l383 187v-213z" />
<glyph unicode="&#xde;" horiz-adv-x="1155" d="M158 1434h262v-269h94q143 0 257 -12t190.5 -52t117.5 -113t41 -191q0 -115 -38 -193t-114.5 -124t-190 -65.5t-263.5 -19.5h-94v-395h-262v1434zM420 965v-373h162q156 0 214 51t58 141q0 47 -13.5 81t-44 56.5t-82.5 33t-132 10.5h-162z" />
<glyph unicode="&#xdf;" horiz-adv-x="1163" d="M752 1139q0 51 -14.5 84.5t-37 55t-51 31t-59.5 9.5q-76 0 -117 -48t-41 -124v-1426h-250v1094h-145l22 209h123v113q0 92 37 165.5t95.5 126t132 80t145.5 27.5q61 0 132 -21.5t131 -67.5t100 -119t40 -177q0 -84 -24.5 -148.5t-53 -112.5t-53 -82t-24.5 -56 q0 -31 43 -65t95 -83t95 -120.5t43 -178.5q0 -94 -37 -157.5t-99 -103.5t-144 -57.5t-172 -17.5q-29 0 -59 2t-64 9v190q78 0 136 3t97 16.5t58.5 41t19.5 76.5q0 82 -44 139.5t-96 104.5l-97 90q-44 43 -44 96q0 43 28 82l61 85q34 46 63 102.5t29 132.5z" />
<glyph unicode="&#xe0;" horiz-adv-x="1019" d="M129 950q190 90 373 90q86 0 154.5 -19.5t116.5 -64.5t73.5 -120.5t25.5 -186.5v-297q0 -57 4.5 -90t13.5 -49t26.5 -20.5t46.5 -4.5h32l-22 -208h-92q-86 0 -140.5 30.5t-85.5 81.5q-49 -59 -136 -91t-181 -32q-61 0 -115.5 20.5t-94.5 60.5t-63.5 96.5t-23.5 129.5 q0 106 63.5 177t153.5 112t189.5 58.5t170.5 19.5q-4 94 -43.5 136t-142.5 42q-70 0 -134.5 -18.5t-145.5 -59.5zM618 471q-53 -2 -108 -14.5t-100 -35t-74 -56t-29 -78.5q0 -63 33 -93t104 -30q35 0 84.5 17.5t89.5 56.5v233zM317 1323v213l383 -186v-152z" />
<glyph unicode="&#xe1;" horiz-adv-x="1019" d="M129 950q190 90 373 90q86 0 154.5 -19.5t116.5 -64.5t73.5 -120.5t25.5 -186.5v-297q0 -57 4.5 -90t13.5 -49t26.5 -20.5t46.5 -4.5h32l-22 -208h-92q-86 0 -140.5 30.5t-85.5 81.5q-49 -59 -136 -91t-181 -32q-61 0 -115.5 20.5t-94.5 60.5t-63.5 96.5t-23.5 129.5 q0 106 63.5 177t153.5 112t189.5 58.5t170.5 19.5q-4 94 -43.5 136t-142.5 42q-70 0 -134.5 -18.5t-145.5 -59.5zM618 471q-53 -2 -108 -14.5t-100 -35t-74 -56t-29 -78.5q0 -63 33 -93t104 -30q35 0 84.5 17.5t89.5 56.5v233zM317 1198v152l383 186v-213z" />
<glyph unicode="&#xe2;" horiz-adv-x="1019" d="M129 950q190 90 373 90q86 0 154.5 -19.5t116.5 -64.5t73.5 -120.5t25.5 -186.5v-297q0 -57 4.5 -90t13.5 -49t26.5 -20.5t46.5 -4.5h32l-22 -208h-92q-86 0 -140.5 30.5t-85.5 81.5q-49 -59 -136 -91t-181 -32q-61 0 -115.5 20.5t-94.5 60.5t-63.5 96.5t-23.5 129.5 q0 106 63.5 177t153.5 112t189.5 58.5t170.5 19.5q-4 94 -43.5 136t-142.5 42q-70 0 -134.5 -18.5t-145.5 -59.5zM510 1343l-301 -145v152l301 186l301 -186v-152zM618 471q-53 -2 -108 -14.5t-100 -35t-74 -56t-29 -78.5q0 -63 33 -93t104 -30q35 0 84.5 17.5t89.5 56.5 v233z" />
<glyph unicode="&#xe3;" horiz-adv-x="1019" d="M129 950q190 90 373 90q86 0 154.5 -19.5t116.5 -64.5t73.5 -120.5t25.5 -186.5v-297q0 -57 4.5 -90t13.5 -49t26.5 -20.5t46.5 -4.5h32l-22 -208h-92q-86 0 -140.5 30.5t-85.5 81.5q-49 -59 -136 -91t-181 -32q-61 0 -115.5 20.5t-94.5 60.5t-63.5 96.5t-23.5 129.5 q0 106 63.5 177t153.5 112t189.5 58.5t170.5 19.5q-4 94 -43.5 136t-142.5 42q-70 0 -134.5 -18.5t-145.5 -59.5zM895 1464q-6 -39 -25.5 -81t-50.5 -76.5t-72.5 -57t-93.5 -22.5q-41 0 -75.5 13t-66.5 29.5l-60.5 30t-57.5 13.5q-47 0 -69.5 -33t-28.5 -63l-170 40 q6 51 30.5 95.5t60.5 76t79 49t86 17.5q45 0 78 -13.5t59.5 -29.5l51 -29.5t53.5 -13.5q47 0 78.5 33t37.5 63zM618 471q-53 -2 -108 -14.5t-100 -35t-74 -56t-29 -78.5q0 -63 33 -93t104 -30q35 0 84.5 17.5t89.5 56.5v233z" />
<glyph unicode="&#xe4;" horiz-adv-x="1019" d="M129 950q190 90 373 90q86 0 154.5 -19.5t116.5 -64.5t73.5 -120.5t25.5 -186.5v-297q0 -57 4.5 -90t13.5 -49t26.5 -20.5t46.5 -4.5h32l-22 -208h-92q-86 0 -140.5 30.5t-85.5 81.5q-49 -59 -136 -91t-181 -32q-61 0 -115.5 20.5t-94.5 60.5t-63.5 96.5t-23.5 129.5 q0 106 63.5 177t153.5 112t189.5 58.5t170.5 19.5q-4 94 -43.5 136t-142.5 42q-70 0 -134.5 -18.5t-145.5 -59.5zM618 471q-53 -2 -108 -14.5t-100 -35t-74 -56t-29 -78.5q0 -63 33 -93t104 -30q35 0 84.5 17.5t89.5 56.5v233zM256 1180v217h199v-217h-199zM565 1180v217 h199v-217h-199z" />
<glyph unicode="&#xe5;" horiz-adv-x="1019" d="M129 950q190 90 373 90q86 0 154.5 -19.5t116.5 -64.5t73.5 -120.5t25.5 -186.5v-297q0 -57 4.5 -90t13.5 -49t26.5 -20.5t46.5 -4.5h32l-22 -208h-92q-86 0 -140.5 30.5t-85.5 81.5q-49 -59 -136 -91t-181 -32q-61 0 -115.5 20.5t-94.5 60.5t-63.5 96.5t-23.5 129.5 q0 106 63.5 177t153.5 112t189.5 58.5t170.5 19.5q-4 94 -43.5 136t-142.5 42q-70 0 -134.5 -18.5t-145.5 -59.5zM510 1546q100 0 156.5 -54t56.5 -130t-56.5 -129t-156.5 -53q-98 0 -155.5 53t-57.5 129t57.5 130t155.5 54zM618 471q-53 -2 -108 -14.5t-100 -35t-74 -56 t-29 -78.5q0 -63 33 -93t104 -30q35 0 84.5 17.5t89.5 56.5v233zM510 1278q39 0 64.5 22.5t25.5 61.5q0 37 -25.5 60.5t-64.5 23.5t-64.5 -23.5t-25.5 -60.5q0 -39 25.5 -61.5t64.5 -22.5z" />
<glyph unicode="&#xe6;" horiz-adv-x="1626" d="M1163 1040q88 0 163 -30.5t129 -88t84 -139.5t30 -182q0 -39 -4 -72.5t-13 -70.5h-649q12 -72 40 -123t67 -83t87 -47.5t99 -15.5q37 0 79 7.5t84 18.5t82 26.5t70 31.5l13 -215q-59 -31 -144.5 -54t-195.5 -23q-156 0 -259.5 53t-150.5 139q-68 -86 -161 -144.5 t-236 -58.5q-162 0 -249 78t-87 213q0 78 28.5 136.5t76 100.5t108.5 69.5t124.5 44t126 23.5t113.5 9q-4 94 -43.5 136t-142.5 42q-70 0 -134.5 -18.5t-145.5 -59.5l-23 207q190 90 371 90q117 0 194.5 -37.5t114.5 -144.5q12 33 44 65.5t79 58.5t106 42t125 16zM307 283 q0 -53 36 -85t87 -32q35 0 72 15.5t66.5 47t49 77.5t19.5 108v28q0 12 -2 29q-51 0 -108.5 -10t-106.5 -34t-81 -59.5t-32 -84.5zM1155 831q-94 0 -160.5 -55t-85.5 -147h432q0 35 -9 70.5t-30.5 65.5t-57.5 48t-89 18z" />
<glyph unicode="&#xe7;" horiz-adv-x="919" d="M317 510q0 -143 68 -232.5t190 -89.5q74 0 137.5 21.5t127.5 62.5l22 -217q-49 -31 -116.5 -53t-190.5 -22t-216 43t-155.5 114.5t-94.5 167.5t-32 205q0 106 32 203.5t94.5 169t155.5 114.5t216 43t190.5 -22.5t116.5 -52.5l-22 -217q-63 41 -127 62t-138 21 q-123 0 -190.5 -89t-67.5 -232zM520 -125l213 19l-205 -273l-151 -18z" />
<glyph unicode="&#xe8;" horiz-adv-x="1054" d="M549 1040q96 0 179 -31.5t143.5 -89t94 -140.5t33.5 -183q0 -35 -4 -68.5t-12 -70.5h-661q10 -72 39.5 -123t71.5 -84t92 -47.5t102 -14.5q37 0 79 7.5t83.5 18.5t81.5 26.5t71 31.5l12 -215q-59 -31 -145 -54t-197 -23q-139 0 -243.5 43t-173 114.5t-103.5 167.5 t-35 205q0 106 33 202.5t95.5 169t153.5 115.5t210 43zM336 1323v213l383 -186v-152zM557 831q-98 0 -154.5 -57t-74.5 -145h413q0 35 -9 70.5t-30.5 65.5t-57.5 48t-87 18z" />
<glyph unicode="&#xe9;" horiz-adv-x="1054" d="M549 1040q96 0 179 -31.5t143.5 -89t94 -140.5t33.5 -183q0 -35 -4 -68.5t-12 -70.5h-661q10 -72 39.5 -123t71.5 -84t92 -47.5t102 -14.5q37 0 79 7.5t83.5 18.5t81.5 26.5t71 31.5l12 -215q-59 -31 -145 -54t-197 -23q-139 0 -243.5 43t-173 114.5t-103.5 167.5 t-35 205q0 106 33 202.5t95.5 169t153.5 115.5t210 43zM336 1198v152l383 186v-213zM557 831q-98 0 -154.5 -57t-74.5 -145h413q0 35 -9 70.5t-30.5 65.5t-57.5 48t-87 18z" />
<glyph unicode="&#xea;" horiz-adv-x="1054" d="M549 1040q96 0 179 -31.5t143.5 -89t94 -140.5t33.5 -183q0 -35 -4 -68.5t-12 -70.5h-661q10 -72 39.5 -123t71.5 -84t92 -47.5t102 -14.5q37 0 79 7.5t83.5 18.5t81.5 26.5t71 31.5l12 -215q-59 -31 -145 -54t-197 -23q-139 0 -243.5 43t-173 114.5t-103.5 167.5 t-35 205q0 106 33 202.5t95.5 169t153.5 115.5t210 43zM526 1343l-301 -145v152l301 186l301 -186v-152zM557 831q-98 0 -154.5 -57t-74.5 -145h413q0 35 -9 70.5t-30.5 65.5t-57.5 48t-87 18z" />
<glyph unicode="&#xeb;" horiz-adv-x="1054" d="M549 1040q96 0 179 -31.5t143.5 -89t94 -140.5t33.5 -183q0 -35 -4 -68.5t-12 -70.5h-661q10 -72 39.5 -123t71.5 -84t92 -47.5t102 -14.5q37 0 79 7.5t83.5 18.5t81.5 26.5t71 31.5l12 -215q-59 -31 -145 -54t-197 -23q-139 0 -243.5 43t-173 114.5t-103.5 167.5 t-35 205q0 106 33 202.5t95.5 169t153.5 115.5t210 43zM557 831q-98 0 -154.5 -57t-74.5 -145h413q0 35 -9 70.5t-30.5 65.5t-57.5 48t-87 18zM272 1180v217h199v-217h-199zM582 1180v217h198v-217h-198z" />
<glyph unicode="&#xec;" horiz-adv-x="491" d="M373 1024v-1024h-254v1024h254zM0 1323v213l373 -186l10 -152z" />
<glyph unicode="&#xed;" horiz-adv-x="491" d="M373 1024v-1024h-254v1024h254zM109 1198v152l383 186v-213z" />
<glyph unicode="&#xee;" horiz-adv-x="491" d="M373 1024v-1024h-254v1024h254zM246 1343l-301 -145v152l301 186l301 -186v-152z" />
<glyph unicode="&#xef;" horiz-adv-x="491" d="M373 1024v-1024h-254v1024h254zM-8 1180v217h198v-217h-198zM301 1180v217h199v-217h-199z" />
<glyph unicode="&#xf0;" horiz-adv-x="1048" d="M850 1423l-69 -101q-34 -48 -72 -91q117 -125 190.5 -305.5t73.5 -397.5q0 -164 -45 -271t-112.5 -169.5t-145.5 -88.5t-144 -26q-115 0 -206 34t-153.5 94.5t-95 141.5t-32.5 177q0 80 24.5 159.5t74.5 145.5t129 106.5t188 40.5q23 0 55.5 -1t66 -9t65.5 -23.5 t54 -45.5q-12 162 -123 309q-63 -47 -132.5 -78t-147.5 -39l-80 150q53 0 116.5 24.5t129.5 65.5q-115 98 -242 102l84 109q150 -2 297 -107q35 31 63.5 62.5t51.5 64.5zM485 674q-61 0 -100 -20.5t-62.5 -52.5t-32.5 -70.5t-9 -75.5q0 -55 13 -104.5t40.5 -87.5t71 -60.5 t102.5 -22.5q39 0 79 14.5t70.5 44t50 72.5t19.5 103q0 131 -62.5 195.5t-179.5 64.5z" />
<glyph unicode="&#xf1;" horiz-adv-x="1130" d="M768 0v551q0 143 -46 211.5t-157 68.5q-66 0 -111.5 -23.5t-80.5 -64.5v-743h-254v1024h237l4 -61q45 33 105.5 55t120.5 22q119 0 202.5 -35.5t135 -100t75 -155t23.5 -198.5v-551h-254zM950 1464q-6 -39 -25.5 -81t-50 -76.5t-72.5 -57t-93 -22.5q-41 0 -76 13 t-66.5 29.5t-60.5 30t-57 13.5q-47 0 -70 -33t-29 -63l-170 40q6 51 31 95.5t60.5 76t78.5 49t86 17.5q45 0 78 -13.5t59.5 -29.5l51 -29.5t53.5 -13.5q47 0 75.5 33t14.5 63z" />
<glyph unicode="&#xf2;" d="M575 1040q123 0 219.5 -43t163 -114.5t101.5 -169t35 -203.5q0 -109 -35 -205t-101.5 -167.5t-163 -114.5t-219.5 -43t-219 43t-162.5 114.5t-101.5 167.5t-35 205q0 106 35 203.5t101.5 169t162.5 114.5t219 43zM575 188q123 0 191 89.5t68 232.5t-68 232t-191 89 t-190.5 -89t-67.5 -232t67.5 -232.5t190.5 -89.5zM383 1323v213l383 -186v-152z" />
<glyph unicode="&#xf3;" d="M575 1040q123 0 219.5 -43t163 -114.5t101.5 -169t35 -203.5q0 -109 -35 -205t-101.5 -167.5t-163 -114.5t-219.5 -43t-219 43t-162.5 114.5t-101.5 167.5t-35 205q0 106 35 203.5t101.5 169t162.5 114.5t219 43zM575 188q123 0 191 89.5t68 232.5t-68 232t-191 89 t-190.5 -89t-67.5 -232t67.5 -232.5t190.5 -89.5zM383 1198v152l383 186v-213z" />
<glyph unicode="&#xf4;" d="M575 1040q123 0 219.5 -43t163 -114.5t101.5 -169t35 -203.5q0 -109 -35 -205t-101.5 -167.5t-163 -114.5t-219.5 -43t-219 43t-162.5 114.5t-101.5 167.5t-35 205q0 106 35 203.5t101.5 169t162.5 114.5t219 43zM575 188q123 0 191 89.5t68 232.5t-68 232t-191 89 t-190.5 -89t-67.5 -232t67.5 -232.5t190.5 -89.5zM575 1343l-301 -145v152l301 186l302 -186v-152z" />
<glyph unicode="&#xf5;" d="M575 1040q123 0 219.5 -43t163 -114.5t101.5 -169t35 -203.5q0 -109 -35 -205t-101.5 -167.5t-163 -114.5t-219.5 -43t-219 43t-162.5 114.5t-101.5 167.5t-35 205q0 106 35 203.5t101.5 169t162.5 114.5t219 43zM575 188q123 0 191 89.5t68 232.5t-68 232t-191 89 t-190.5 -89t-67.5 -232t67.5 -232.5t190.5 -89.5zM961 1464q-6 -39 -26 -81t-50.5 -76.5t-72.5 -57t-93 -22.5q-41 0 -76 13t-66.5 29.5t-60.5 30t-57 13.5q-47 0 -69.5 -33t-29.5 -63l-170 40q6 51 31 95.5t60.5 76t78.5 49t86 17.5q45 0 78 -13.5t59.5 -29.5l51 -29.5 t53.5 -13.5q47 0 79 33t38 63z" />
<glyph unicode="&#xf6;" d="M575 1040q123 0 219.5 -43t163 -114.5t101.5 -169t35 -203.5q0 -109 -35 -205t-101.5 -167.5t-163 -114.5t-219.5 -43t-219 43t-162.5 114.5t-101.5 167.5t-35 205q0 106 35 203.5t101.5 169t162.5 114.5t219 43zM575 188q123 0 191 89.5t68 232.5t-68 232t-191 89 t-190.5 -89t-67.5 -232t67.5 -232.5t190.5 -89.5zM322 1180v217h198v-217h-198zM631 1180v217h198v-217h-198z" />
<glyph unicode="&#xf7;" horiz-adv-x="1122" d="M1032 664v-193h-942v193h942zM426 41v266h254v-266h-254zM426 827v267h254v-267h-254z" />
<glyph unicode="&#xf8;" d="M575 1040q37 0 71 -4t67 -12l32 70h224l-76 -154q98 -74 149.5 -186.5t51.5 -243.5q0 -109 -35 -205t-101.5 -167.5t-163 -114.5t-219.5 -43q-68 0 -143 16l-33 -70h-217l74 154q-98 72 -148.5 185.5t-50.5 244.5q0 106 35 203.5t101.5 169t162.5 114.5t219 43zM575 188 q123 0 191 89.5t68 232.5q0 59 -13.5 111.5t-36.5 93.5l-256 -522q10 -2 22.5 -3.5t24.5 -1.5zM317 510q0 -121 48 -205l251 522q-10 2 -20 3t-21 1q-123 0 -190.5 -89t-67.5 -232z" />
<glyph unicode="&#xf9;" horiz-adv-x="1130" d="M362 1024v-551q0 -143 46.5 -211.5t156.5 -68.5q63 0 110.5 22.5t82.5 63.5v745h254v-1024h-238l-4 61q-45 -35 -105.5 -56t-119.5 -21q-121 0 -204 35.5t-134 100t-74.5 155t-23.5 198.5v551h253zM375 1323v213l383 -186v-152z" />
<glyph unicode="&#xfa;" horiz-adv-x="1130" d="M362 1024v-551q0 -143 46.5 -211.5t156.5 -68.5q63 0 110.5 22.5t82.5 63.5v745h254v-1024h-238l-4 61q-45 -35 -105.5 -56t-119.5 -21q-121 0 -204 35.5t-134 100t-74.5 155t-23.5 198.5v551h253zM375 1198v152l383 186v-213z" />
<glyph unicode="&#xfb;" horiz-adv-x="1130" d="M362 1024v-551q0 -143 46.5 -211.5t156.5 -68.5q63 0 110.5 22.5t82.5 63.5v745h254v-1024h-238l-4 61q-45 -35 -105.5 -56t-119.5 -21q-121 0 -204 35.5t-134 100t-74.5 155t-23.5 198.5v551h253zM565 1343l-301 -145v152l301 186l301 -186v-152z" />
<glyph unicode="&#xfc;" horiz-adv-x="1130" d="M362 1024v-551q0 -143 46.5 -211.5t156.5 -68.5q63 0 110.5 22.5t82.5 63.5v745h254v-1024h-238l-4 61q-45 -35 -105.5 -56t-119.5 -21q-121 0 -204 35.5t-134 100t-74.5 155t-23.5 198.5v551h253zM621 1180v217h198v-217h-198zM311 1180v217h199v-217h-199z" />
<glyph unicode="&#xfd;" horiz-adv-x="1099" d="M285 1024l262 -659l266 659h283l-641 -1520h-254l227 564l-426 956h283zM356 1198v152l383 186v-213z" />
<glyph unicode="&#xfe;" horiz-adv-x="1171" d="M612 -20q-80 0 -134 17t-105 52v-545h-254v2032h254v-563q49 33 104 50t135 17q123 0 217.5 -43t157 -114.5t95 -169t32.5 -203.5q0 -109 -32.5 -205t-95 -167.5t-157 -114.5t-217.5 -43zM596 188q123 0 190.5 89.5t67.5 232.5t-67.5 232t-190.5 89t-179.5 -89 t-56.5 -232t56.5 -232.5t179.5 -89.5z" />
<glyph unicode="&#xff;" horiz-adv-x="1099" d="M285 1024l262 -659l266 659h283l-641 -1520h-254l227 564l-426 956h283zM604 1180v217h199v-217h-199zM295 1180v217h199v-217h-199z" />
<glyph unicode="&#x152;" horiz-adv-x="2177" d="M778 1462q129 0 236.5 -36.5t199.5 -104.5v113h875v-254h-606v-306h467v-253h-467v-367h624v-254h-893v113q-92 -68 -199.5 -105t-236.5 -37q-154 0 -283.5 53.5t-223 150.5t-146.5 234.5t-53 307.5q0 168 53 306t146.5 235.5t223 150.5t283.5 53zM778 223q104 0 183 37 t131.5 102.5t79 155.5t26.5 199q0 106 -26.5 197.5t-79 157t-131 102t-183.5 36.5q-104 0 -183 -36.5t-131 -102t-79 -157t-27 -197.5q0 -109 27 -199t79 -155.5t131 -102.5t183 -37z" />
<glyph unicode="&#x153;" horiz-adv-x="1832" d="M1327 1040q96 0 179 -31.5t143.5 -89t94.5 -140.5t34 -183q0 -35 -4.5 -68.5t-12.5 -70.5h-661q10 -72 39.5 -123t71.5 -84t92.5 -47.5t101.5 -14.5q37 0 79 7.5t84 18.5t82 26.5t70 31.5l13 -215q-59 -31 -145.5 -54t-196.5 -23q-147 0 -252 44t-174 121 q-66 -78 -163 -121.5t-227 -43.5q-123 0 -219 43t-162.5 114.5t-101.5 167.5t-35 205q0 106 35 203.5t101.5 169t163 114.5t218.5 43q125 0 222.5 -44t163.5 -117q63 74 153 117.5t213 43.5zM575 188q123 0 191 89.5t68 232.5t-68 232t-191 89t-190.5 -89t-67.5 -232 t67.5 -232.5t190.5 -89.5zM1335 831q-98 0 -154.5 -57t-74.5 -145h414q0 35 -9.5 70.5t-31 65.5t-57.5 48t-87 18z" />
<glyph unicode="&#x178;" horiz-adv-x="1302" d="M651 868l396 566h272l-537 -799v-635h-262v635l-536 799h272zM707 1589v217h198v-217h-198zM397 1589v217h199v-217h-199z" />
<glyph unicode="&#x2c6;" horiz-adv-x="913" d="M457 1343l-301 -145v152l301 186l301 -186v-152z" />
<glyph unicode="&#x2dc;" horiz-adv-x="1081" d="M926 1464q-6 -39 -25.5 -81t-50.5 -76.5t-73 -57t-93 -22.5q-41 0 -76 13t-66.5 29.5t-60 30t-57.5 13.5q-47 0 -69.5 -33t-28.5 -63l-170 40q6 51 30.5 95.5t60.5 76t79 49t86 17.5q45 0 77.5 -13.5t59 -29.5t51.5 -29.5t53 -13.5q47 0 79 33t38 63z" />
<glyph unicode="&#x2000;" horiz-adv-x="976" />
<glyph unicode="&#x2001;" horiz-adv-x="1955" />
<glyph unicode="&#x2002;" horiz-adv-x="976" />
<glyph unicode="&#x2003;" horiz-adv-x="1955" />
<glyph unicode="&#x2004;" horiz-adv-x="651" />
<glyph unicode="&#x2005;" horiz-adv-x="487" />
<glyph unicode="&#x2006;" horiz-adv-x="325" />
<glyph unicode="&#x2007;" horiz-adv-x="325" />
<glyph unicode="&#x2008;" horiz-adv-x="243" />
<glyph unicode="&#x2009;" horiz-adv-x="391" />
<glyph unicode="&#x200a;" horiz-adv-x="108" />
<glyph unicode="&#x2010;" horiz-adv-x="835" d="M735 664v-193h-635v193h635z" />
<glyph unicode="&#x2011;" horiz-adv-x="835" d="M735 664v-193h-635v193h635z" />
<glyph unicode="&#x2012;" horiz-adv-x="835" d="M735 664v-193h-635v193h635z" />
<glyph unicode="&#x2013;" horiz-adv-x="1142" d="M1042 664v-193h-942v193h942z" />
<glyph unicode="&#x2014;" horiz-adv-x="1347" d="M1247 664v-193h-1147v193h1147z" />
<glyph unicode="&#x2018;" horiz-adv-x="430" d="M289 1536l53 -29l-68 -176l68 -20v-267h-254v267z" />
<glyph unicode="&#x2019;" horiz-adv-x="393" d="M137 1044l-53 29l68 176l-68 21v266h254v-266z" />
<glyph unicode="&#x201a;" horiz-adv-x="483" d="M168 -225l-53 28l67 197h-67v266h254v-266z" />
<glyph unicode="&#x201c;" horiz-adv-x="909" d="M289 1536l53 -29l-68 -176l68 -20v-267h-254v267zM768 1536l53 -29l-67 -176l67 -20v-267h-254v267z" />
<glyph unicode="&#x201d;" horiz-adv-x="872" d="M137 1044l-53 29l68 176l-68 21v266h254v-266zM616 1044l-53 29l68 176l-68 21v266h254v-266z" />
<glyph unicode="&#x201e;" horiz-adv-x="880" d="M168 -225l-53 28l67 177l-67 20v266h254v-266zM565 -225l-53 28l68 177l-68 20v266h254v-266z" />
<glyph unicode="&#x2022;" horiz-adv-x="610" d="M82 569q0 45 17.5 86t48 72t70.5 48.5t87 17.5q45 0 86 -17.5t72 -48.5t48 -72t17 -86q0 -47 -17 -87t-48 -70.5t-72 -48t-86 -17.5q-47 0 -87 17.5t-70.5 48t-48 70.5t-17.5 87z" />
<glyph unicode="&#x2026;" horiz-adv-x="1441" d="M115 0v266h254v-266h-254zM594 0v266h254v-266h-254zM1073 0v266h254v-266h-254z" />
<glyph unicode="&#x202f;" horiz-adv-x="391" />
<glyph unicode="&#x2039;" horiz-adv-x="710" d="M334 160l-311 422l311 422h301l-311 -422l311 -422h-301z" />
<glyph unicode="&#x203a;" horiz-adv-x="710" d="M76 160l311 422l-311 422h301l311 -422l-311 -422h-301z" />
<glyph unicode="&#x205f;" horiz-adv-x="487" />
<glyph unicode="&#x20ac;" horiz-adv-x="1435" d="M332 911q27 113 85 203t140 153.5t184.5 97.5t219.5 34q98 0 195 -18.5t175 -57.5l-28 -231q-86 35 -165 58.5t-177 23.5q-147 0 -233.5 -70t-123.5 -193h514l-61 -166h-479v-28q0 -33 2 -61.5t6 -51.5h493l-61 -176h-375q47 -80 124 -124t194 -44q98 0 177 23.5 t165 58.5l28 -231q-78 -39 -175 -57.5t-195 -18.5q-211 0 -369 103.5t-232 289.5h-294l61 176h188q-6 51 -6 113v28h-184l57 166h150z" />
<glyph unicode="&#x2122;" horiz-adv-x="1513" d="M645 1434l-20 -160h-193v-584h-164v584h-198v160h575zM1020 1130l184 304h105l100 -744h-170l-53 434l-156 -254h-22l-154 254l-55 -434h-168l100 744h103z" />
<glyph unicode="&#xe000;" horiz-adv-x="1025" d="M0 1025h1025v-1025h-1025v1025z" />
<glyph unicode="&#xfb01;" horiz-adv-x="1189" d="M1071 1024v-1024h-254v1024h254zM817 1180v254h254v-254h-254zM182 0v815h-145l22 209h123v244q0 49 15.5 97t46 86t77 61.5t107.5 23.5q51 0 84 -1t57.5 -3t45 -4t44.5 -4l-22 -211q-35 8 -65.5 9t-43.5 1q-57 0 -74.5 -33t-17.5 -127v-139h226v-209h-226v-815h-254z " />
<glyph unicode="&#xfb02;" horiz-adv-x="1241" d="M1071 1536v-1184q0 -61 5 -95t18.5 -49t38 -17.5t61.5 -2.5l-23 -208h-92q-68 0 -118 21.5t-81.5 57t-47 85t-15.5 104.5v1288h254zM182 0v815h-145l22 209h123v244q0 49 15.5 97t46 86t77 61.5t107.5 23.5q51 0 84 -1t57.5 -3t45 -4t44.5 -4l-22 -211q-35 8 -65.5 9 t-43.5 1q-57 0 -74.5 -33t-17.5 -127v-139h226v-209h-226v-815h-254z" />
<glyph unicode="&#xfb03;" horiz-adv-x="1888" d="M1770 1024v-1024h-254v1024h254zM1516 1180v254h254v-254h-254zM880 0v815h-145l22 209h123v244q0 49 15.5 97t46 86t77 61.5t107.5 23.5q51 0 84 -1t57.5 -3t45 -4t44.5 -4l-22 -211q-35 8 -65.5 9t-43.5 1q-57 0 -74.5 -33t-17.5 -127v-139h226v-209h-226v-815h-254z M182 0v815h-145l22 209h123v244q0 49 15.5 97t46 86t77 61.5t107.5 23.5q51 0 84 -1t57.5 -3t45 -4t44.5 -4l-22 -211q-35 8 -65.5 9t-43.5 1q-57 0 -74.5 -33t-17.5 -127v-139h226v-209h-226v-815h-254z" />
<glyph unicode="&#xfb04;" horiz-adv-x="1939" d="M1770 1536v-1184q0 -61 5 -95t18.5 -49t38 -17.5t61.5 -2.5l-23 -208h-92q-68 0 -118 21.5t-81.5 57t-47 85t-15.5 104.5v1288h254zM880 0v815h-145l22 209h123v244q0 49 15.5 97t46 86t77 61.5t107.5 23.5q51 0 84 -1t57.5 -3t45 -4t44.5 -4l-22 -211q-35 8 -65.5 9 t-43.5 1q-57 0 -74.5 -33t-17.5 -127v-139h226v-209h-226v-815h-254zM182 0v815h-145l22 209h123v244q0 49 15.5 97t46 86t77 61.5t107.5 23.5q51 0 84 -1t57.5 -3t45 -4t44.5 -4l-22 -211q-35 8 -65.5 9t-43.5 1q-57 0 -74.5 -33t-17.5 -127v-139h226v-209h-226v-815h-254z " />
</font>
</defs>
</svg>
